<mxfile host="app.diagrams.net" modified="2023-10-24T06:05:22.998Z" agent="Mozilla/5.0 (Macintosh; Intel Mac OS X 10_15_7) AppleWebKit/537.36 (KHTML, like Gecko) Chrome/118.0.0.0 Safari/537.36" version="21.6.9" etag="JXln__-b_-ssN91aUhsW" type="github">
  <diagram name="第 1 页" id="TZupkh9vo4gh-owst1WW">
    <mxGraphModel>
      <root>
        <mxCell id="0" />
        <mxCell id="1" parent="0" />
      </root>
    </mxGraphModel>
  </diagram>
</mxfile>
